<?xml version="1.0" encoding="UTF-8"?>
<svg xmlns="http://www.w3.org/2000/svg" xmlns:xlink="http://www.w3.org/1999/xlink" viewBox="0 0 1920 1920">
  <defs>
    <style>
      .cls-1, .cls-2, .cls-3 {
        fill: #fff;
      }

      .cls-4 {
        fill: #662d91;
        filter: url(#drop-shadow-1);
        stroke-width: 9px;
      }

      .cls-4, .cls-5, .cls-6, .cls-7, .cls-8, .cls-9, .cls-10, .cls-11 {
        stroke-miterlimit: 10;
      }

      .cls-4, .cls-6, .cls-9 {
        stroke: #999;
      }

      .cls-5, .cls-7, .cls-8, .cls-10, .cls-11 {
        stroke: #ed1c24;
      }

      .cls-5, .cls-10 {
        fill: gray;
      }

      .cls-5, .cls-11 {
        stroke-width: 18px;
      }

      .cls-2 {
        font-size: 29.07px;
      }

      .cls-2, .cls-3 {
        font-family: PathwayExtreme8ptThin-Bold, 'Pathway Extreme 8pt Thin';
        font-variation-settings: 'wght' 700, 'wdth' 100, 'opsz' 8;
        font-weight: 700;
      }

      .cls-6, .cls-7, .cls-8, .cls-9, .cls-11 {
        fill: none;
      }

      .cls-6, .cls-7, .cls-9 {
        stroke-width: 10px;
      }

      .cls-8 {
        stroke-width: 20px;
      }

      .cls-9 {
        stroke-dasharray: 0 0 11.98 11.98;
      }

      .cls-12 {
        opacity: .15;
      }

      .cls-13 {
        fill: url(#radial-gradient);
      }

      .cls-10 {
        stroke-width: 12px;
      }

      .cls-3 {
        font-size: 29.2px;
      }
    </style>
    <radialGradient id="radial-gradient" cx="960" cy="960" fx="960" fy="960" r="960" gradientUnits="userSpaceOnUse">
      <stop offset=".39" stop-color="#662d91"/>
      <stop offset="1" stop-color="#383838"/>
    </radialGradient>
    <filter id="drop-shadow-1" filterUnits="userSpaceOnUse">
      <feOffset dx="7" dy="7"/>
      <feGaussianBlur result="blur" stdDeviation="5"/>
      <feFlood flood-color="#000" flood-opacity=".81"/>
      <feComposite in2="blur" operator="in"/>
      <feComposite in="SourceGraphic"/>
    </filter>
  </defs>
  <g id="basecolor">
    <rect class="cls-13" width="1920" height="1920"/>
  </g>
  <g id="bg" class="cls-12">
    <circle class="cls-1" cx="216.94" cy="165.6" r="22.49"/>
    <circle class="cls-1" cx="572.57" cy="165.6" r="22.49"/>
    <circle class="cls-1" cx="928.21" cy="165.6" r="22.49"/>
    <circle class="cls-1" cx="1283.85" cy="165.6" r="22.49"/>
    <circle class="cls-1" cx="1639.49" cy="165.6" r="22.49"/>
    <circle class="cls-1" cx="396.73" cy="331.8" r="22.49"/>
    <circle class="cls-1" cx="752.36" cy="331.8" r="22.49"/>
    <circle class="cls-1" cx="1108" cy="331.8" r="22.49"/>
    <circle class="cls-1" cx="1463.64" cy="331.8" r="22.49"/>
    <circle class="cls-1" cx="216.94" cy="496.04" r="22.49"/>
    <circle class="cls-1" cx="572.57" cy="496.04" r="22.49"/>
    <circle class="cls-1" cx="928.21" cy="496.04" r="22.49"/>
    <circle class="cls-1" cx="1283.85" cy="496.04" r="22.49"/>
    <circle class="cls-1" cx="1639.49" cy="496.04" r="22.49"/>
    <circle class="cls-1" cx="396.73" cy="662.23" r="22.49"/>
    <circle class="cls-1" cx="752.36" cy="662.23" r="22.49"/>
    <circle class="cls-1" cx="1108" cy="662.23" r="22.49"/>
    <circle class="cls-1" cx="1463.64" cy="662.23" r="22.49"/>
    <circle class="cls-1" cx="216.94" cy="826.47" r="22.49"/>
    <circle class="cls-1" cx="572.57" cy="826.47" r="22.49"/>
    <circle class="cls-1" cx="928.21" cy="826.47" r="22.49"/>
    <circle class="cls-1" cx="1283.85" cy="826.47" r="22.49"/>
    <circle class="cls-1" cx="1639.49" cy="826.47" r="22.49"/>
    <circle class="cls-1" cx="396.73" cy="992.66" r="22.49"/>
    <circle class="cls-1" cx="752.36" cy="992.66" r="22.49"/>
    <circle class="cls-1" cx="1108" cy="992.66" r="22.49"/>
    <circle class="cls-1" cx="1463.64" cy="992.66" r="22.49"/>
    <circle class="cls-1" cx="216.94" cy="1133.44" r="22.49"/>
    <circle class="cls-1" cx="572.57" cy="1133.44" r="22.49"/>
    <circle class="cls-1" cx="928.21" cy="1133.44" r="22.49"/>
    <circle class="cls-1" cx="1283.85" cy="1133.44" r="22.49"/>
    <circle class="cls-1" cx="1639.49" cy="1133.44" r="22.49"/>
    <circle class="cls-1" cx="396.73" cy="1299.64" r="22.49"/>
    <circle class="cls-1" cx="752.36" cy="1299.64" r="22.49"/>
    <circle class="cls-1" cx="1108" cy="1299.64" r="22.49"/>
    <circle class="cls-1" cx="1463.64" cy="1299.64" r="22.49"/>
    <circle class="cls-1" cx="194.45" cy="1453.12" r="22.49"/>
    <circle class="cls-1" cx="550.09" cy="1453.12" r="22.49"/>
    <circle class="cls-1" cx="905.73" cy="1453.12" r="22.49"/>
    <circle class="cls-1" cx="1261.37" cy="1453.12" r="22.49"/>
    <circle class="cls-1" cx="1617" cy="1453.12" r="22.49"/>
    <circle class="cls-1" cx="374.24" cy="1619.32" r="22.49"/>
    <circle class="cls-1" cx="729.88" cy="1619.32" r="22.49"/>
    <circle class="cls-1" cx="1085.52" cy="1619.32" r="22.49"/>
    <circle class="cls-1" cx="1441.16" cy="1619.32" r="22.49"/>
    <circle class="cls-1" cx="216.94" cy="1731.32" r="22.49"/>
    <circle class="cls-1" cx="572.57" cy="1731.32" r="22.49"/>
    <circle class="cls-1" cx="928.21" cy="1731.32" r="22.49"/>
    <circle class="cls-1" cx="1283.85" cy="1731.32" r="22.49"/>
    <circle class="cls-1" cx="1639.49" cy="1731.32" r="22.49"/>
    <circle class="cls-1" cx="396.73" cy="1897.51" r="22.49"/>
    <circle class="cls-1" cx="752.36" cy="1897.51" r="22.49"/>
    <circle class="cls-1" cx="1108" cy="1897.51" r="22.49"/>
    <circle class="cls-1" cx="1463.64" cy="1897.51" r="22.49"/>
    <circle class="cls-1" cx="396.73" cy="52.2" r="22.49"/>
    <circle class="cls-1" cx="752.36" cy="52.2" r="22.49"/>
    <circle class="cls-1" cx="1108" cy="52.2" r="22.49"/>
    <circle class="cls-1" cx="1463.64" cy="52.2" r="22.49"/>
    <circle class="cls-1" cx="1799.82" cy="316.94" r="22.49"/>
    <circle class="cls-1" cx="1799.82" cy="647.37" r="22.49"/>
    <circle class="cls-1" cx="1799.82" cy="977.81" r="22.49"/>
    <circle class="cls-1" cx="1799.82" cy="1284.78" r="22.49"/>
    <circle class="cls-1" cx="1777.33" cy="1604.46" r="22.49"/>
    <circle class="cls-1" cx="1799.82" cy="1882.66" r="22.49"/>
    <circle class="cls-1" cx="1799.82" cy="37.34" r="22.49"/>
    <circle class="cls-1" cx="76.68" cy="312.26" r="22.49"/>
    <circle class="cls-1" cx="76.68" cy="642.7" r="22.49"/>
    <circle class="cls-1" cx="76.68" cy="973.13" r="22.49"/>
    <circle class="cls-1" cx="76.68" cy="1280.1" r="22.49"/>
    <circle class="cls-1" cx="99.17" cy="1599.78" r="22.49"/>
    <circle class="cls-1" cx="76.68" cy="1877.98" r="22.49"/>
    <circle class="cls-1" cx="76.68" cy="32.66" r="22.49"/>
  </g>
  <g id="shapes">
    <path class="cls-4" d="m1382.92,1439.63l-239.29-1030.01c-4.82-20.73-29.58-29.37-46.25-16.14L387.67,957.04c-16.66,13.23-13.86,39.31,5.24,48.7l949,466.45c21.93,10.78,46.54-8.76,41.01-32.56Z"/>
  </g>
  <g id="markings">
    <g>
      <line class="cls-6" x1="734.62" y1="678.71" x2="738.4" y2="683.37"/>
      <line class="cls-9" x1="745.94" y1="692.67" x2="1360.69" y2="1450.83"/>
      <line class="cls-6" x1="1364.46" y1="1455.48" x2="1368.24" y2="1460.14"/>
    </g>
    <rect class="cls-7" x="757.43" y="655.31" width="76.24" height="76.24" transform="translate(-258.69 645.1) rotate(-38.45)"/>
  </g>
  <g id="text">
    <line class="cls-8" x1="723.88" y1="720.83" x2="667.28" y2="767.74"/>
    <line class="cls-11" x1="959.37" y1="1056.19" x2="695.5" y2="743.92"/>
    <line class="cls-8" x1="1325.45" y1="1433.28" x2="1267.95" y2="1477.5"/>
    <line class="cls-11" x1="1036.07" y1="1146.7" x2="1297.05" y2="1455.54"/>
    <path class="cls-10" d="m934.06,1076.02l53.65-42.04c1.85-1.45,4.58-1.18,6.09.6l71.11,84.16c1.51,1.78,1.23,4.41-.63,5.86l-53.65,42.04c-1.85,1.45-4.58,1.18-6.09-.6l-71.11-84.16c-1.51-1.78-1.23-4.41.63-5.86Z"/>
    <text class="cls-3" transform="translate(965.09 1073.14) rotate(49.68) skewX(-2.13)"><tspan x="0" y="0">12 cm</tspan></text>
    <line class="cls-8" x1="318.55" y1="874.97" x2="363.64" y2="931.35"/>
    <line class="cls-11" x1="663.67" y1="649.87" x2="340.73" y2="903.23"/>
    <line class="cls-8" x1="1054.49" y1="297.38" x2="1098.52" y2="354.59"/>
    <line class="cls-11" x1="757.27" y1="576.22" x2="1076.66" y2="325.64"/>
    <rect class="cls-5" x="671.17" y="552.05" width="76.35" height="119.11" rx="4.25" ry="4.25" transform="translate(752.69 -323.99) rotate(51.88)"/>
    <text class="cls-2" transform="translate(681.03 644.56) rotate(-38.24)"><tspan x="0" y="0">12 cm</tspan></text>
  </g>
</svg>